# xmcd
#
# Track frame offsets:
#	150
#	11977
#	22380
#	31745
#	44195
#	56225
#	66072
#	75877
#	88430
#	99035
#	110490
#	122215
#	132280
#	142332
#	151595
#	161260
#	170610
#	182592
#	191365
#	203712
#	213050
#	222950
#
# Disc length: 3099 seconds
#
# Revision: 0
# Processed by: cddbd v1.5.1PL0 Copyright (c) Steve Scherf et al.
# Submitted via: dBpowerAMP V4.0
#
DISCID=360c1916
DTITLE=Hawkshaw Hawkins - Country Gentleman
DYEAR=1900
DGENRE=Country
TTITLE0=I Don't Apologize For Loving You
TTITLE1=Waiti'n For My Baby ( Rock Rock )
TTITLE2=I'll Trade Yours For Mine
TTITLE3=I Wanna Be Huged To Death By You
TTITLE4=The Mark'Round My Finger
TTITLE5=Rebound
TTITLE6=If It Ain't On The Menu
TTITLE7=I'll Take A Chance With You
TTITLE8=Ko Ko Mo ( I Love You So )
TTITLE9=I'll Be Gone
TTITLE10=Oh, How I Cried
TTITLE11=Action
TTITLE12=My Fate Is In Your Hands
TTITLE13=( Is My ) Ring On Your Finger
TTITLE14=Sunny Side Of The Mountain
TTITLE15=With This Pen
TTITLE16=Standing At The End Of My World
TTITLE17=I'll Get Even With You
TTITLE18=The Love You Steal
TTITLE19=Ling Ting Tong
TTITLE20=How Could Anything So Purty ( Be So Doggone Mean )
TTITLE21=It Would Be A Doggone Lie
EXTD=Bob Dunham
EXTT0=
EXTT1=
EXTT2=
EXTT3=
EXTT4=
EXTT5=
EXTT6=
EXTT7=
EXTT8=
EXTT9=
EXTT10=
EXTT11=
EXTT12=
EXTT13=
EXTT14=
EXTT15=
EXTT16=
EXTT17=
EXTT18=
EXTT19=
EXTT20=
EXTT21=
PLAYORDER=
